<svg width="64" height="64" viewBox="0 0 64 64" fill="none" xmlns="http://www.w3.org/2000/svg">
  <defs>
    <linearGradient id="brainGradient" x1="0%" y1="0%" x2="100%" y2="100%">
      <stop offset="0%" style="stop-color:#667eea;stop-opacity:1" />
      <stop offset="100%" style="stop-color:#764ba2;stop-opacity:1" />
    </linearGradient>
    <filter id="glow">
      <feGaussianBlur stdDeviation="3" result="coloredBlur"/>
      <feMerge> 
        <feMergeNode in="coloredBlur"/>
        <feMergeNode in="SourceGraphic"/>
      </feMerge>
    </filter>
  </defs>
  
  <!-- Brain outline -->
  <path d="M32 8C20 8 12 16 12 28C12 36 16 42 24 46C20 50 16 56 16 62H20C20 58 24 54 28 52C30 54 32 56 32 58C32 56 34 54 36 52C40 54 44 58 44 62H48C48 56 44 50 40 46C48 42 52 36 52 28C52 16 44 8 32 8Z" 
        fill="url(#brainGradient)" filter="url(#glow)"/>
  
  <!-- Neural connections -->
  <circle cx="24" cy="24" r="2" fill="white" opacity="0.8"/>
  <circle cx="40" cy="24" r="2" fill="white" opacity="0.8"/>
  <circle cx="32" cy="32" r="2" fill="white" opacity="0.8"/>
  <circle cx="28" cy="40" r="2" fill="white" opacity="0.8"/>
  <circle cx="36" cy="40" r="2" fill="white" opacity="0.8"/>
  
  <!-- Connection lines -->
  <line x1="24" y1="24" x2="32" y2="32" stroke="white" stroke-width="1" opacity="0.6"/>
  <line x1="40" y1="24" x2="32" y2="32" stroke="white" stroke-width="1" opacity="0.6"/>
  <line x1="32" y1="32" x2="28" y2="40" stroke="white" stroke-width="1" opacity="0.6"/>
  <line x1="32" y1="32" x2="36" y2="40" stroke="white" stroke-width="1" opacity="0.6"/>
  
  <!-- Animated dots -->
  <circle cx="24" cy="24" r="1" fill="white">
    <animate attributeName="opacity" values="0.3;1;0.3" dur="2s" repeatCount="indefinite"/>
  </circle>
  <circle cx="40" cy="24" r="1" fill="white">
    <animate attributeName="opacity" values="0.3;1;0.3" dur="2s" repeatCount="indefinite" begin="0.5s"/>
  </circle>
  <circle cx="32" cy="32" r="1" fill="white">
    <animate attributeName="opacity" values="0.3;1;0.3" dur="2s" repeatCount="indefinite" begin="1s"/>
  </circle>
</svg> 